<svg xmlns="http://www.w3.org/2000/svg" fill="none" viewBox="0 0 394 80">
  <path fill="#000" d="M262 0h68.5v12.7h-27.2c-4.4 0-7.5 1.3-9.4 3.8-1.9 2.5-2.8 5.7-2.8 9.6V30h40.3v12.6h-40.3V80h-13.1V42.6h-26.4V30h26.4V16.1c0-8.5 2.6-15.4 7.9-20.7C247.1-9.9 253.8-12.7 262-12.7V0zM149.6 0v12.7H94v20.9h44.3v12.6H94v21h56.5V80h-70V0h69.1zM42.7 0L0 80h13.1l8.4-19.4h33.1L63 80h13.1L42.7 0zM25.9 47.4l17.8-40.8 17.8 40.8H25.9z"/>
  <path fill="#000" d="M394 69.4c0 6.1-4.9 11-11 11s-11-4.9-11-11 4.9-11 11-11 11 4.9 11 11z"/>
</svg> 