<svg width="24" height="24" viewBox="0 0 24 24" fill="none" xmlns="http://www.w3.org/2000/svg">
<path d="M12 13C13.1819 13 14.3524 13.2333 15.4443 13.6855C16.5362 14.1378 17.5286 14.8001 18.3643 15.6357C19.2 16.4714 19.8631 17.4638 20.3154 18.5557C20.5117 19.0296 20.6668 19.5186 20.7793 20.0166C21.0225 21.0939 20.1045 22 19 22H5C3.89564 21.9998 2.9784 21.0938 3.22168 20.0166C3.3342 19.5186 3.48925 19.0296 3.68555 18.5557C4.13784 17.4638 4.80104 16.4714 5.63672 15.6357C6.47238 14.8002 7.46485 14.1378 8.55664 13.6855C9.6484 13.2334 10.8183 13 12 13ZM12 3C14.2091 3 16 4.79086 16 7C16 9.20914 14.2091 11 12 11C9.79101 10.9998 8 9.20903 8 7C8 4.79097 9.79101 3.00018 12 3Z" fill="#8694AA"/>
</svg>
