<svg width="24" height="24" viewBox="0 0 24 24" fill="none" xmlns="http://www.w3.org/2000/svg">
<path d="M12 13C13.1819 13 14.3524 13.2333 15.4443 13.6855C16.5362 14.1378 17.5286 14.8001 18.3643 15.6357C19.2 16.4715 19.8631 17.4637 20.3154 18.5557C20.5117 19.0296 20.6668 19.5186 20.7793 20.0166C21.0225 21.0939 20.1045 22 19 22H5C3.89553 21.9999 2.97835 21.0939 3.22168 20.0166C3.3342 19.5186 3.48925 19.0296 3.68555 18.5557C4.13783 17.4639 4.80012 16.4714 5.63574 15.6357C6.47136 14.8001 7.4639 14.1378 8.55566 13.6855C9.64756 13.2333 10.8181 13 12 13ZM12 3C14.2091 3 16 4.79086 16 7C16 9.20914 14.2091 11 12 11C9.79092 10.9999 8 9.2091 8 7C8 4.7909 9.79092 3.00007 12 3Z" fill="#3C50E0"/>
</svg>
