<svg width="24" height="24" viewBox="0 0 24 24" fill="none" xmlns="http://www.w3.org/2000/svg">
<path d="M12 4H5C4.44772 4 4 4.44772 4 5V19C4 19.5523 4.44772 20 5 20H19C19.5523 20 20 19.5523 20 19V12H22V19C22 20.6569 20.6569 22 19 22H5C3.34315 22 2 20.6569 2 19V5C2 3.34315 3.34315 2 5 2H12V4Z" fill="#8694AA"/>
<path d="M17.6143 10.5283L10.9121 17.2305C10.7246 17.4179 10.4702 17.5234 10.2051 17.5234H7.54785C6.99557 17.5234 6.54786 17.0757 6.54785 16.5234V13.8662C6.54791 13.6011 6.65334 13.3467 6.84082 13.1592L13.543 6.45703L17.6143 10.5283Z" fill="#8694AA"/>
<path d="M17.376 2.62402C17.7665 2.23357 18.3995 2.23357 18.79 2.62402L21.4473 5.28125C21.8376 5.67177 21.8377 6.30484 21.4473 6.69531L19.0283 9.11426L14.957 5.04297L17.376 2.62402Z" fill="#8694AA"/>
</svg>
