<svg width="24" height="24" viewBox="0 0 24 24" fill="none" xmlns="http://www.w3.org/2000/svg">
<g clip-path="url(#clip0_2353_1002)">
<path d="M12 12C14.2091 12 16 10.2091 16 8C16 5.79086 14.2091 4 12 4C9.79086 4 8 5.79086 8 8C8 10.2091 9.79086 12 12 12Z" fill="#B6CAFF"/>
<path d="M6 18C6 15.7909 8.68629 14 12 14C15.3137 14 18 15.7909 18 18V19C18 19.5523 17.5523 20 17 20H7C6.44772 20 6 19.5523 6 19V18Z" fill="#B6CAFF"/>
<path d="M4 11C5.10457 11 6 10.1046 6 9C6 7.89543 5.10457 7 4 7C2.89543 7 2 7.89543 2 9C2 10.1046 2.89543 11 4 11Z" fill="#B6CAFF" opacity="0.6"/>
<path d="M20 11C21.1046 11 22 10.1046 22 9C22 7.89543 21.1046 7 20 7C18.8954 7 18 7.89543 18 9C18 10.1046 18.8954 11 20 11Z" fill="#B6CAFF" opacity="0.6"/>
</g>
<defs>
<clipPath id="clip0_2353_1002">
<rect width="24" height="24" fill="white"/>
</clipPath>
</defs>
</svg>
