<svg width="24" height="24" viewBox="0 0 24 24" fill="none" xmlns="http://www.w3.org/2000/svg">
<path d="M15 14C15.5523 14 16 14.4477 16 15C16 15.5523 15.5523 16 15 16H9C8.44772 16 8 15.5523 8 15C8 14.4477 8.44772 14 9 14H15Z" fill="#3C50E0"/>
<path fill-rule="evenodd" clip-rule="evenodd" d="M17 4C17.5523 4 18 4.44772 18 5V6H19C20.1046 6 21 6.89543 21 8V19C21 20.1046 20.1046 21 19 21H5C3.89543 21 3 20.1046 3 19V8C3 6.89543 3.89543 6 5 6H6.5V5C6.5 4.44772 6.94772 4 7.5 4C8.05228 4 8.5 4.44772 8.5 5V6H16V5C16 4.44772 16.4477 4 17 4ZM6 10C5.44772 10 5 10.4477 5 11V18C5 18.5523 5.44772 19 6 19H18C18.5523 19 19 18.5523 19 18V11C19 10.4477 18.5523 10 18 10H6Z" fill="#3C50E0"/>
</svg>
