<svg width="24" height="24" viewBox="0 0 24 24" fill="none" xmlns="http://www.w3.org/2000/svg">
<path fill-rule="evenodd" clip-rule="evenodd" d="M19 2C20.6569 2 22 3.34315 22 5V19C22 20.6051 20.7394 21.9158 19.1543 21.9961L19 22H5L4.8457 21.9961C3.31166 21.9184 2.08163 20.6883 2.00391 19.1543L2 19V5C2 3.34315 3.34315 2 5 2H19ZM5 3.40039C4.11634 3.40039 3.40039 4.11634 3.40039 5V19C3.40039 19.8837 4.11634 20.5996 5 20.5996H19C19.8837 20.5996 20.5996 19.8837 20.5996 19V5C20.5996 4.11634 19.8837 3.40039 19 3.40039H5Z" fill="#8694AA"/>
<path d="M18 9.09734L9.94352 16L9.53074 15.4935L6 11.1717L6.98711 10.2474L10.1041 14.0628L17.1804 8L18 9.09734Z" fill="#8694AA"/>
</svg>
