<svg width="24" height="24" viewBox="0 0 24 24" fill="none" xmlns="http://www.w3.org/2000/svg">
<path fill-rule="evenodd" clip-rule="evenodd" d="M16.2491 2C17.3733 2 18.2847 2.91136 18.2847 4.03558V4.39141H19.3025C20.792 4.39141 22 5.59936 22 7.08896V19.3025C22 20.792 20.792 22 19.3025 22H7.08896C5.59936 22 4.39141 20.792 4.39141 19.3025V18.2847H4.03558C2.91136 18.2847 2 17.3733 2 16.2491V4.03558C2 2.91136 2.91136 2 4.03558 2H16.2491ZM18.2847 16.2491C18.2847 17.3733 17.3733 18.2847 16.2491 18.2847H5.71534V19.3025C5.71534 20.0613 6.33011 20.6761 7.08896 20.6761H19.3025C20.0613 20.6761 20.6761 20.0613 20.6761 19.3025V7.08896C20.6761 6.33011 20.0613 5.71534 19.3025 5.71534H18.2847V16.2491Z" fill="#3C50E0"/>
</svg>
