<svg width="24" height="24" viewBox="0 0 24 24" fill="none" xmlns="http://www.w3.org/2000/svg">
<g clip-path="url(#clip0_1572_11371)">
<path d="M17.4749 9.25299C18.0607 9.83877 18.0607 10.7885 17.4749 11.3743L11.1109 17.7383C10.5251 18.3241 9.57538 18.3241 8.98959 17.7383L6.16117 14.9098C5.57538 14.3241 5.57538 13.3743 6.16117 12.7885L12.5251 6.42456C13.1109 5.83877 14.0607 5.83877 14.6464 6.42456L17.4749 9.25299Z" fill="#9EA8F0"/>
<path fill-rule="evenodd" clip-rule="evenodd" d="M22.7782 6.77811C21.6066 7.94969 21.6066 9.84918 22.7782 11.0208L10.7574 23.0416C9.58579 21.87 7.68629 21.87 6.51472 23.0416L0.857865 17.3847C2.02944 16.2131 2.02944 14.3136 0.857865 13.1421L12.8787 1.12126C14.0503 2.29283 15.9497 2.29283 17.1213 1.12126L22.7782 6.77811ZM15.3536 5.71745C14.3772 4.74114 12.7943 4.74114 11.818 5.71745L5.45406 12.0814C4.47775 13.0577 4.47775 14.6406 5.45406 15.6169L8.28249 18.4454C9.2588 19.4217 10.8417 19.4217 11.818 18.4454L18.182 12.0814C19.1583 11.1051 19.1583 9.52219 18.182 8.54588L15.3536 5.71745Z" fill="#9EA8F0"/>
</g>
<defs>
<clipPath id="clip0_1572_11371">
<rect width="24" height="24" fill="white"/>
</clipPath>
</defs>
</svg>
