<svg width="24" height="24" viewBox="0 0 24 24" fill="none" xmlns="http://www.w3.org/2000/svg">
<path d="M16.443 12.3767C16.6587 11.8744 17.3413 11.8744 17.557 12.3767L18.5506 14.6897C18.6394 14.8964 18.8264 15.0384 19.042 15.0628L21.4543 15.3353C21.9782 15.3945 22.1891 16.0728 21.7986 16.4424L20.0003 18.1445C19.8396 18.2966 19.7681 18.5263 19.8126 18.7481L20.3099 21.2295C20.418 21.7684 19.8658 22.1876 19.4086 21.9138L17.3037 20.6527C17.1156 20.54 16.8844 20.54 16.6963 20.6527L14.5914 21.9138C14.1342 22.1876 13.582 21.7684 13.6901 21.2295L14.1874 18.7481C14.2319 18.5263 14.1604 18.2966 13.9997 18.1445L12.2014 16.4424C11.8109 16.0728 12.0218 15.3945 12.5457 15.3353L14.958 15.0628C15.1736 15.0384 15.3606 14.8964 15.4494 14.6897L16.443 12.3767Z" fill="#8694AA"/>
<path d="M12.0008 13C12.9816 13.0001 13.954 13.1624 14.8807 13.4756L14.6151 14.0947L12.4335 14.3418C10.9985 14.5042 10.5547 16.261 11.5135 17.1689L13.1698 18.7354L12.7098 21.0332C12.6423 21.3703 12.6882 21.7045 12.8143 22H5.00084C3.89636 22 2.9783 21.0939 3.22154 20.0166C3.33406 19.5187 3.48912 19.0295 3.68541 18.5557C4.1377 17.4638 4.8009 16.4714 5.63658 15.6357C6.47221 14.8002 7.46476 14.1378 8.5565 13.6855C9.64833 13.2333 10.8191 13 12.0008 13Z" fill="#8694AA"/>
<path d="M12.0008 3C14.2097 3.00034 16.0008 4.79107 16.0008 7C16.0008 9.20893 14.2097 10.9997 12.0008 11C9.7917 11 8.00084 9.20914 8.00084 7C8.00084 4.79086 9.7917 3 12.0008 3Z" fill="#8694AA"/>
</svg>
