<svg width="24" height="24" viewBox="0 0 24 24" fill="none" xmlns="http://www.w3.org/2000/svg">
<path d="M17.46 10.46L12.46 15.46L12 15.9189L11.54 15.46L6.54004 10.46L7.45996 9.54004L12 14.0801L16.54 9.54004L17.46 10.46Z" fill="#3C50E0"/>
<path fill-rule="evenodd" clip-rule="evenodd" d="M19 2C20.6569 2 22 3.34315 22 5V19C22 20.6051 20.7394 21.9158 19.1543 21.9961L19 22H5L4.8457 21.9961C3.31166 21.9184 2.08163 20.6883 2.00391 19.1543L2 19V5C2 3.34315 3.34315 2 5 2H19ZM5 3.40039C4.11634 3.40039 3.40039 4.11634 3.40039 5V19C3.40039 19.8837 4.11634 20.5996 5 20.5996H19C19.8837 20.5996 20.5996 19.8837 20.5996 19V5C20.5996 4.11634 19.8837 3.40039 19 3.40039H5Z" fill="#3C50E0"/>
</svg>
