<svg width="24" height="24" viewBox="0 0 24 24" fill="none" xmlns="http://www.w3.org/2000/svg">
<path d="M12 4.00012H5C4.44772 4.00012 4 4.44784 4 5.00012V19.0001C4 19.5524 4.44772 20.0001 5 20.0001H19C19.5523 20.0001 20 19.5524 20 19.0001V12.0001H22V19.0001C22 20.657 20.6569 22.0001 19 22.0001H5C3.34315 22.0001 2 20.657 2 19.0001V5.00012C2 3.34327 3.34315 2.00012 5 2.00012H12V4.00012Z" fill="#3C50E0"/>
<path d="M17.6143 10.5284L10.9121 17.2306C10.7246 17.4181 10.4702 17.5235 10.2051 17.5236H7.54785C6.99557 17.5236 6.54786 17.0758 6.54785 16.5236V13.8663C6.54791 13.6012 6.65334 13.3468 6.84082 13.1593L13.543 6.45715L17.6143 10.5284Z" fill="#3C50E0"/>
<path d="M17.376 2.62415C17.7665 2.23369 18.3995 2.23369 18.79 2.62415L21.4473 5.28137C21.8376 5.67189 21.8377 6.30496 21.4473 6.69543L19.0283 9.11438L14.957 5.04309L17.376 2.62415Z" fill="#3C50E0"/>
</svg>
