<svg width="24" height="24" viewBox="0 0 24 24" fill="none" xmlns="http://www.w3.org/2000/svg">
<path d="M14.5498 12.9004C14.8811 12.652 15.351 12.7187 15.5996 13.0498C15.848 13.3811 15.7813 13.851 15.4502 14.0996L11.4502 17.0996C11.1516 17.3235 10.7336 17.2942 10.4697 17.0303L8.96973 15.5303C8.67683 15.2374 8.67683 14.7626 8.96973 14.4697C9.26262 14.1769 9.73739 14.1768 10.0303 14.4697L11.0703 15.5098L14.5498 12.9004Z" fill="#8694AA"/>
<path fill-rule="evenodd" clip-rule="evenodd" d="M17 4C17.5523 4 18 4.44772 18 5V6H19C20.1046 6 21 6.89543 21 8V19C21 20.1046 20.1046 21 19 21H5C3.89543 21 3 20.1046 3 19V8C3 6.89543 3.89543 6 5 6H6.5V5C6.5 4.44772 6.94772 4 7.5 4C8.05228 4 8.5 4.44772 8.5 5V6H16V5C16 4.44772 16.4477 4 17 4ZM6 10C5.44772 10 5 10.4477 5 11V18C5 18.5523 5.44772 19 6 19H18C18.5523 19 19 18.5523 19 18V11C19 10.4477 18.5523 10 18 10H6Z" fill="#8694AA"/>
</svg>
