<svg width="24" height="24" viewBox="0 0 24 24" fill="none" xmlns="http://www.w3.org/2000/svg">
<path d="M22.6992 10.7148C22.6026 10.8094 22.503 10.8999 22.4062 10.9922L23.4746 12.0605L22.0605 13.4746L20.9092 12.3232C20.0605 13.0202 19.2066 13.6258 18.3447 14.1328L19.1162 15.4678L17.3838 16.4678L16.5576 15.0381C15.3879 15.5328 14.2031 15.8414 13 15.9521V17.5H11V15.9512C9.90749 15.8495 8.82077 15.5841 7.7373 15.1553L6.86621 16.665L5.13379 15.665L5.92773 14.2881C4.93819 13.7312 3.95014 13.0407 2.96191 12.2188L1.70703 13.4746L0.292969 12.0605L1.47363 10.8789C1.41665 10.824 1.35777 10.7706 1.30078 10.7148L2.69922 9.28516C6.09657 12.6099 9.20025 14.0412 12.1318 13.999C15.0709 13.9567 18.088 12.4304 21.3008 9.28516L22.6992 10.7148Z" fill="#8694AA"/>
</svg>
