<svg width="24" height="24" viewBox="0 0 24 24" fill="none" xmlns="http://www.w3.org/2000/svg">
<path d="M12 9.99958C13.1046 9.99958 14 10.895 14 11.9996C14 13.1041 13.1046 13.9996 12 13.9996C10.8955 13.9996 10 13.1041 10 11.9996C10 10.895 10.8955 9.99959 12 9.99958Z" fill="#3C50E0"/>
<path fill-rule="evenodd" clip-rule="evenodd" d="M2.36038 11.0533C8.73548 4.50691 14.8876 4.12691 21.6397 11.0533C22.1201 11.5466 22.1203 12.4547 21.6397 12.9478C15.2634 19.4906 9.11282 19.8744 2.36038 12.9478C1.87975 12.4548 1.88 11.5467 2.36038 11.0533ZM12 7.99958C9.79092 7.99959 8.00005 9.79046 8.00003 11.9996C8.00003 14.2087 9.79091 15.9996 12 15.9996C14.2092 15.9996 16 14.2087 16 11.9996C16 9.79045 14.2092 7.99958 12 7.99958Z" fill="#3C50E0"/>
</svg>
