<svg width="24" height="24" viewBox="0 0 24 24" fill="none" xmlns="http://www.w3.org/2000/svg">
<path fill-rule="evenodd" clip-rule="evenodd" d="M12 2C17.5228 2 22 6.47715 22 12C22 17.5228 17.5228 22 12 22C6.47715 22 2 17.5228 2 12C2 6.47715 6.47715 2 12 2ZM11.3057 5.75V7.39941C10.9623 7.45296 10.6344 7.5615 10.3232 7.72656C9.93015 7.92673 9.6123 8.22287 9.37012 8.6084L9.36914 8.60938C9.12627 9.0001 9.01371 9.47944 9.01367 10.0322C9.01367 10.5898 9.12097 11.0652 9.36035 11.4355C9.58659 11.7855 9.88624 12.0646 10.2549 12.2705C10.5069 12.4192 10.7783 12.5363 11.0674 12.623L11.0742 12.625C11.3485 12.6991 11.6339 12.7693 11.9297 12.835L11.9355 12.8359C12.2163 12.8905 12.4905 12.9652 12.7568 13.0586L12.7627 13.0605L12.7695 13.0625C12.9463 13.1134 13.0942 13.1807 13.2158 13.2617L13.2246 13.2676C13.3345 13.3348 13.4168 13.4206 13.4756 13.5273L13.4805 13.5361C13.5375 13.6313 13.5761 13.7731 13.5762 13.9795C13.5762 14.2265 13.5119 14.4068 13.4023 14.54L13.3994 14.5439C13.2855 14.6894 13.1332 14.7964 12.9346 14.8633L12.9326 14.8643C12.7281 14.9353 12.5003 14.9726 12.2471 14.9727C11.9835 14.9727 11.7177 14.9382 11.4521 14.8701C11.2124 14.8066 11.003 14.6952 10.8213 14.5352C10.6526 14.3785 10.5213 14.1556 10.4365 13.8516L10.3857 13.6689H8.70801L8.75293 13.958C8.83775 14.4973 9.00598 14.9613 9.26562 15.3398L9.26758 15.3428C9.53007 15.7137 9.85536 16.0049 10.2422 16.2109L10.249 16.2139C10.5681 16.3729 10.9064 16.4833 11.2617 16.5518V18.25H12.8701V16.5996C13.2584 16.5407 13.6176 16.4243 13.9453 16.2461C14.344 16.0292 14.6619 15.7205 14.8965 15.3252L14.8984 15.3232C15.1385 14.9093 15.2499 14.3998 15.25 13.8096C15.25 13.3783 15.1798 12.9999 15.0264 12.6875C14.8762 12.3738 14.6574 12.117 14.373 11.9219C14.1096 11.7283 13.7984 11.5777 13.4414 11.4668C13.1 11.3404 12.7338 11.2403 12.3438 11.165C11.9781 11.0869 11.6475 10.9819 11.3506 10.8516C11.2236 10.7951 11.1065 10.7246 10.999 10.6406C10.9123 10.5674 10.8392 10.4751 10.7812 10.3594C10.7285 10.254 10.6982 10.1225 10.6982 9.95898C10.6983 9.68361 10.7676 9.51022 10.8711 9.40039C10.9997 9.26406 11.1617 9.16301 11.3643 9.10156C11.5871 9.0362 11.8126 9.00842 12.041 9.01562H12.0498C12.2949 9.01567 12.5194 9.0528 12.7246 9.12402L12.7314 9.12598C12.9196 9.18474 13.0722 9.28704 13.1943 9.43555L13.1982 9.44043C13.3087 9.56912 13.3872 9.75844 13.4131 10.0312L13.4346 10.2578H15.0459L15.042 10.0039C15.0341 9.49319 14.9284 9.04356 14.7129 8.66602C14.5029 8.29823 14.2213 8.00283 13.8701 7.78516C13.5844 7.6081 13.2721 7.49011 12.9355 7.42871V5.75H11.3057Z" fill="#8694AA"/>
</svg>
