<svg width="58" height="58" viewBox="0 0 58 58" fill="none" xmlns="http://www.w3.org/2000/svg">
<path d="M25.2784 3.41493C27.5136 1.52836 30.7833 1.52836 33.0185 3.41492L36.5886 6.4283C37.5386 7.23015 38.7142 7.71712 39.953 7.82188L44.6083 8.21558C47.5227 8.46205 49.8348 10.7741 50.0813 13.6886L50.475 18.3439C50.5798 19.5826 51.0667 20.7583 51.8686 21.7083L54.8819 25.2784C56.7685 27.5135 56.7685 30.7833 54.8819 33.0185L51.8686 36.5886C51.0667 37.5386 50.5798 38.7142 50.475 39.953L50.0813 44.6083C49.8348 47.5227 47.5227 49.8348 44.6083 50.0813L39.953 50.475C38.7143 50.5798 37.5386 51.0667 36.5886 51.8686L33.0185 54.8819C30.7833 56.7685 27.5136 56.7685 25.2784 54.8819L21.7083 51.8686C20.7583 51.0667 19.5826 50.5798 18.3439 50.475L13.6886 50.0813C10.7741 49.8348 8.46205 47.5227 8.21558 44.6083L7.82188 39.953C7.71712 38.7143 7.23015 37.5386 6.4283 36.5886L3.41493 33.0185C1.52836 30.7833 1.52836 27.5136 3.41492 25.2784L6.4283 21.7083C7.23015 20.7583 7.71712 19.5826 7.82188 18.3439L8.21558 13.6886C8.46205 10.7741 10.7741 8.46205 13.6886 8.21558L18.3439 7.82188C19.5826 7.71712 20.7583 7.23015 21.7083 6.4283L25.2784 3.41493Z" fill="#E7031E"/>
<path d="M39.3281 21.8281L31.9922 29.1641L39.3281 36.5L36.5 39.3281L29.1641 31.9922L21.8281 39.3281L19 36.5L26.3359 29.1641L19 21.8281L21.8281 19L29.1641 26.3359L36.5 19L39.3281 21.8281Z" fill="white"/>
</svg>
