<svg width="40" height="40" viewBox="0 0 40 40" fill="none" xmlns="http://www.w3.org/2000/svg">
<path d="M19.5 22C21.4041 22 23.2896 22.3749 25.0488 23.1035C26.808 23.8322 28.4065 24.9006 29.7529 26.2471C31.0994 27.5935 32.1678 29.192 32.8965 30.9512C33.6251 32.7104 34 34.5959 34 36.5H5C5 34.5959 5.37486 32.7104 6.10352 30.9512C6.83221 29.1919 7.90062 27.5935 9.24707 26.2471C10.5935 24.9006 12.192 23.8322 13.9512 23.1035C15.7104 22.3749 17.5959 22 19.5 22ZM19.5 4C23.6421 4 27 7.35786 27 11.5C27 15.6421 23.6421 19 19.5 19C15.3579 19 12 15.6421 12 11.5C12 7.35786 15.3579 4 19.5 4Z" fill="#3C50E0"/>
</svg>
