<svg width="24" height="24" viewBox="0 0 24 24" fill="none" xmlns="http://www.w3.org/2000/svg">
<path fill-rule="evenodd" clip-rule="evenodd" d="M12.0004 7.34618C14.568 7.34618 16.6545 9.43337 16.6545 12C16.6545 14.5666 14.5672 16.6538 12.0004 16.6538C9.43369 16.6538 7.34641 14.5666 7.34641 12C7.34641 9.43336 9.43287 7.34618 12.0004 7.34618ZM11.9996 9.15682C11.2455 9.15693 10.5224 9.45659 9.98923 9.98986C9.45608 10.5231 9.15661 11.2464 9.15672 12.0004C9.15683 12.7545 9.4565 13.4776 9.9898 14.0107C10.5231 14.5438 11.2464 14.8433 12.0004 14.8432C12.7545 14.8431 13.4777 14.5434 14.0108 14.0101C14.544 13.4769 14.8435 12.7536 14.8433 11.9996C14.8432 11.2455 14.5436 10.5224 14.0103 9.98929C13.477 9.45616 12.7537 9.15671 11.9996 9.15682Z" fill="#8694AA"/>
<path d="M16.6643 6.26538C16.8848 6.26554 17.1003 6.33106 17.2836 6.45365C17.4669 6.57625 17.6097 6.75042 17.694 6.95415C17.7783 7.15789 17.8003 7.38206 17.7572 7.59831C17.7142 7.81455 17.608 8.01318 17.4521 8.16909C17.2961 8.325 17.0975 8.43119 16.8813 8.47424C16.665 8.5173 16.4408 8.4953 16.2371 8.41099C16.0333 8.32669 15.8592 8.18388 15.7365 8.00062C15.6139 7.81736 15.5484 7.60185 15.5482 7.38136C15.5482 6.76609 15.9655 6.26538 16.6643 6.26538Z" fill="#8694AA"/>
<path fill-rule="evenodd" clip-rule="evenodd" d="M15.6374 3C17.0595 3.00065 18.4231 3.56583 19.4286 4.57132C20.4342 5.57682 20.9993 6.94037 21 8.36235V15.6368C20.9989 17.0587 20.4336 18.4222 19.4282 19.4277C18.4228 20.4332 17.0594 20.9987 15.6374 21H8.3626C6.94054 20.9989 5.57706 20.4335 4.57159 19.4279C3.56612 18.4223 3.00087 17.0588 3 15.6368V8.36235C3.00109 6.9405 3.56643 5.5772 4.57188 4.5718C5.57732 3.5664 6.94068 3.00109 8.3626 3H15.6374ZM8.3626 4.81064C7.89613 4.81054 7.43421 4.90232 7.00324 5.08077C6.57225 5.25922 6.18064 5.52083 5.85079 5.85066C5.52095 6.18049 5.25933 6.57209 5.08087 7.00305C4.90241 7.43401 4.81062 7.89591 4.81073 8.36235V15.6368C4.81062 16.1033 4.90242 16.5652 5.08087 16.9962C5.25932 17.4273 5.52093 17.8189 5.85076 18.1488C6.18059 18.4787 6.57219 18.7404 7.00317 18.9189C7.43416 19.0975 7.89609 19.1894 8.3626 19.1894H15.6374C16.5796 19.1891 17.4831 18.8148 18.1493 18.1486C18.8155 17.4824 19.1899 16.5789 19.1901 15.6368L19.1893 8.36235C19.1891 7.42044 18.8148 6.51717 18.1487 5.85114C17.4827 5.18511 16.5794 4.81086 15.6374 4.81064H8.3626Z" fill="#8694AA"/>
</svg>
