<svg width="24" height="24" viewBox="0 0 24 24" fill="none" xmlns="http://www.w3.org/2000/svg">
<path d="M21.1172 21.9922C21.0787 21.9967 21.0397 22 21 22H3C2.95998 22 2.92062 21.9968 2.88184 21.9922L12 15.6094L21.1172 21.9922Z" fill="#3C50E0"/>
<path d="M7.50781 17.5332L2.06152 21.3457C2.02182 21.238 2 21.1215 2 21V14.5674L7.50781 17.5332Z" fill="#3C50E0"/>
<path d="M22 21C22 21.1217 21.9773 21.2379 21.9375 21.3457L16.709 17.6855L22 14.8369V21Z" fill="#3C50E0"/>
<path d="M6.5 15.875L2 13.3242V11C2 10.4482 2.66702 9.91291 3.5 9.43945C4.58994 8.81995 5.96406 8.30625 6.5 8V15.875Z" fill="#3C50E0"/>
<path d="M18.5 8.09863C19.1544 8.46883 19.9639 8.92246 20.6396 9.39648C21.4061 9.9342 22 10.4992 22 11V13.7002L18.5 15.5V8.09863Z" fill="#3C50E0"/>
<path d="M11.583 7.5H9.75V6.5H11.583V7.5Z" fill="#3C50E0"/>
<path d="M15.25 7.5H13.417V6.5H15.25V7.5Z" fill="#3C50E0"/>
<path fill-rule="evenodd" clip-rule="evenodd" d="M17.5 2C18.0523 2 18.5 2.44772 18.5 3V15.5L16 17L12 14.5L8 17L6.5 15.875V3C6.5 2.44772 6.94772 2 7.5 2H17.5ZM7.5 6.5H7.91699V7.5H7.5V15.375L8.05078 15.7881L11.4697 13.6523L12 13.3203L16.0098 15.8271L17.5 14.9336V7.5H17.083V6.5H17.5V3H7.5V6.5Z" fill="#3C50E0"/>
</svg>
