<svg width="24" height="24" viewBox="0 0 24 24" fill="none" xmlns="http://www.w3.org/2000/svg">
<path d="M15 1C16.6569 1 18 2.34315 18 4V5.94531H16V4C16 3.44772 15.5523 3 15 3H4C3.44772 3 3 3.44772 3 4V19C3 19.5523 3.44772 20 4 20H15C15.5523 20 16 19.5523 16 19V17.25H18V19C18 20.6569 16.6569 22 15 22H4C2.34315 22 1 20.6569 1 19V4C1 2.34315 2.34315 1 4 1H15Z" fill="#8694AA"/>
<path d="M23 11.5L18.6934 16L17.3633 14.4541L19.1729 12.5645H10V10.4355H19.1729L17.3633 8.5459L18.6934 7L23 11.5Z" fill="#8694AA"/>
</svg>
