<svg width="24" height="24" viewBox="0 0 24 24" fill="none" xmlns="http://www.w3.org/2000/svg">
<path d="M17.526 16.676C17.166 16.676 16.81 16.636 16.458 16.556C16.106 16.476 15.778 16.352 15.474 16.184C15.178 16.016 14.926 15.792 14.718 15.512C14.518 15.232 14.39 14.892 14.334 14.492H15.618C15.706 14.748 15.85 14.952 16.05 15.104C16.258 15.248 16.49 15.352 16.746 15.416C17.01 15.48 17.274 15.512 17.538 15.512C17.714 15.512 17.902 15.496 18.102 15.464C18.31 15.432 18.502 15.368 18.678 15.272C18.862 15.176 19.01 15.036 19.122 14.852C19.234 14.668 19.29 14.432 19.29 14.144C19.29 13.864 19.238 13.64 19.134 13.472C19.03 13.296 18.89 13.16 18.714 13.064C18.546 12.968 18.354 12.904 18.138 12.872C17.922 12.84 17.698 12.824 17.466 12.824H16.602V11.72H17.142C17.398 11.72 17.638 11.696 17.862 11.648C18.086 11.592 18.278 11.516 18.438 11.42C18.606 11.316 18.738 11.184 18.834 11.024C18.93 10.856 18.978 10.652 18.978 10.412C18.978 10.076 18.906 9.82 18.762 9.644C18.618 9.46 18.43 9.332 18.198 9.26C17.966 9.188 17.714 9.152 17.442 9.152C17.218 9.152 16.994 9.188 16.77 9.26C16.554 9.324 16.362 9.428 16.194 9.572C16.026 9.716 15.914 9.9 15.858 10.124H14.61C14.658 9.748 14.77 9.428 14.946 9.164C15.13 8.892 15.354 8.668 15.618 8.492C15.89 8.316 16.19 8.192 16.518 8.12C16.846 8.04 17.186 8 17.538 8C17.898 8 18.238 8.04 18.558 8.12C18.886 8.192 19.174 8.316 19.422 8.492C19.67 8.668 19.866 8.9 20.01 9.188C20.162 9.468 20.238 9.812 20.238 10.22C20.238 10.5 20.19 10.76 20.094 11C20.006 11.24 19.87 11.452 19.686 11.636C19.51 11.812 19.294 11.96 19.038 12.08C19.382 12.152 19.67 12.284 19.902 12.476C20.134 12.668 20.306 12.904 20.418 13.184C20.538 13.456 20.598 13.76 20.598 14.096C20.598 14.624 20.502 15.056 20.31 15.392C20.118 15.728 19.866 15.988 19.554 16.172C19.25 16.356 18.918 16.488 18.558 16.568C18.198 16.64 17.854 16.676 17.526 16.676Z" fill="#3C50E0"/>
<path d="M7.53711 16.58V15.524L9.92511 13.484C10.1251 13.316 10.3451 13.128 10.5851 12.92C10.8331 12.712 11.0691 12.488 11.2931 12.248C11.5251 12.008 11.7131 11.752 11.8571 11.48C12.0091 11.208 12.0851 10.924 12.0851 10.628C12.0851 10.172 11.9451 9.816 11.6651 9.56C11.3931 9.304 11.0211 9.176 10.5491 9.176C10.1491 9.176 9.80911 9.26 9.52911 9.428C9.25711 9.596 9.07711 9.832 8.98911 10.136H7.69311C7.76511 9.648 7.94511 9.248 8.23311 8.936C8.52111 8.624 8.87311 8.392 9.28911 8.24C9.70511 8.08 10.1411 8 10.5971 8C11.1251 8 11.5971 8.096 12.0131 8.288C12.4291 8.48 12.7571 8.764 12.9971 9.14C13.2371 9.508 13.3571 9.96 13.3571 10.496C13.3571 11 13.2611 11.448 13.0691 11.84C12.8771 12.232 12.6211 12.588 12.3011 12.908C11.9891 13.228 11.6491 13.54 11.2811 13.844L9.39711 15.416H13.4171V16.58H7.53711Z" fill="#3C50E0"/>
<path d="M4.704 16.5797V9.9677H3V9.0677C3.32 9.0437 3.608 9.0077 3.864 8.9597C4.12 8.9037 4.348 8.8117 4.548 8.6837C4.748 8.5477 4.924 8.3517 5.076 8.0957H5.976V16.5797H4.704Z" fill="#3C50E0"/>
</svg>
