<svg width="24" height="24" viewBox="0 0 24 24" fill="none" xmlns="http://www.w3.org/2000/svg">
<path d="M12 2C9.64089 2 7.72266 3.91829 7.72266 6.27805C7.72266 8.63782 9.64089 10.5589 12 10.5589C13.0785 10.5589 14.1053 10.1454 14.89 9.42259C14.6454 9.06337 14.5021 8.63067 14.5021 8.16701C14.502 7.10138 15.2602 6.19948 16.262 5.97532C16.1053 3.75736 14.2567 2 12 2ZM11.6415 4.25587H12.3558V4.61161V4.65905C12.5289 4.70271 12.6894 4.77318 12.8252 4.87668C13.0505 5.04827 13.2158 5.31615 13.2158 5.62375H12.5036C12.5036 5.56965 12.4766 5.50994 12.3906 5.44449C12.3047 5.37903 12.1639 5.3259 12 5.3259C11.8361 5.3259 11.6932 5.37903 11.6073 5.44449C11.5214 5.50994 11.4964 5.56965 11.4964 5.62375C11.4964 5.66853 11.4957 5.67502 11.5968 5.74025C11.6979 5.80547 11.886 5.87537 12.0977 5.93556C12.3305 6.00178 12.5744 6.07499 12.7938 6.21458C13.0133 6.35416 13.2242 6.62088 13.2158 6.94282C13.2033 7.42804 12.8255 7.77591 12.3558 7.89566V7.95217V8.30861H11.6443L11.6415 7.95217V7.89706C11.4697 7.85403 11.3098 7.78364 11.1748 7.68082C10.9496 7.50923 10.7821 7.24275 10.7821 6.93514H11.4964C11.4964 6.98925 11.5214 7.04617 11.6073 7.11162C11.6932 7.17707 11.8361 7.22951 12 7.22951C12.3278 7.22951 12.5006 7.04343 12.5036 6.92398C12.5048 6.87877 12.51 6.88301 12.4088 6.81865C12.3076 6.75429 12.116 6.68478 11.9024 6.62404C11.6676 6.55727 11.4261 6.47812 11.209 6.33804C10.9919 6.19796 10.7821 5.94069 10.7821 5.62375C10.7821 5.31615 10.9496 5.04827 11.1748 4.87668C11.3098 4.77387 11.4697 4.70353 11.6415 4.65975V4.61161V4.25587ZM16.7468 6.6359C16.341 6.63585 15.9518 6.79706 15.6648 7.08407C15.3777 7.37107 15.2165 7.76037 15.2164 8.16631C15.2163 8.36737 15.2559 8.56648 15.3328 8.75225C15.4097 8.93802 15.5224 9.10682 15.6645 9.24901C15.8066 9.39119 15.9754 9.50398 16.1611 9.58092C16.3468 9.65786 16.5458 9.69745 16.7468 9.69743C17.1527 9.69729 17.5418 9.5359 17.8287 9.24876C18.1156 8.96162 18.2767 8.57226 18.2765 8.16631C18.2765 7.76049 18.1153 7.3713 17.8284 7.08431C17.5416 6.79733 17.1525 6.63603 16.7468 6.6359ZM17.2002 7.59293C17.2695 7.59603 17.3363 7.61921 17.3926 7.65964C17.4489 7.70006 17.4922 7.756 17.5172 7.82062C17.5423 7.88524 17.548 7.95575 17.5337 8.02358C17.5194 8.0914 17.4857 8.15359 17.4367 8.20258L16.8877 8.76969C16.8549 8.80374 16.8156 8.83093 16.7721 8.84966C16.7287 8.8684 16.6819 8.87832 16.6346 8.87883C16.5873 8.87935 16.5404 8.87046 16.4965 8.85269C16.4527 8.83491 16.4128 8.80859 16.3792 8.77526L16.0207 8.41952C15.9535 8.35235 15.9158 8.26125 15.9159 8.16627C15.9159 8.07129 15.9536 7.9802 16.0208 7.91305C16.0879 7.8459 16.179 7.80818 16.2739 7.80819C16.3689 7.8082 16.46 7.84594 16.5271 7.9131L16.6269 8.01285L16.9198 7.70733C16.9834 7.63885 17.0713 7.59803 17.1647 7.59363C17.1765 7.5928 17.1884 7.59257 17.2002 7.59293ZM18.7885 10.7598C18.6821 10.7571 18.5707 10.7822 18.4684 10.8386L16.9917 11.654C16.7189 11.8045 16.6147 12.1158 16.758 12.353L19.4735 16.848C19.6168 17.0851 19.952 17.1554 20.2248 17.0049L21.7022 16.1902C21.975 16.0397 22.0792 15.727 21.9359 15.4899L19.2196 10.9949C19.1301 10.8466 18.9659 10.7643 18.7885 10.7598ZM5.51423 11.1811C5.33232 11.1933 5.15995 11.2889 5.06152 11.4518L2.07672 16.3918C1.91924 16.6524 2.01183 16.9835 2.28459 17.134L3.76199 17.948C4.03476 18.0985 4.38088 18.0105 4.53836 17.7499L7.52317 12.8099C7.68064 12.5492 7.58806 12.2182 7.3153 12.0677L5.83789 11.253C5.73561 11.1965 5.62338 11.1738 5.51423 11.1811ZM13.3044 13.0282C12.8748 13.0153 12.4422 13.0295 12.0405 13.0736C11.237 13.1617 10.5596 13.382 10.2827 13.6644C10.0414 13.9104 9.67066 14.4461 9.40236 14.9681C9.2682 15.2291 9.15812 15.4884 9.09544 15.7068C9.03275 15.9252 9.02927 16.1021 9.05498 16.17C9.10595 16.3045 9.15845 16.3265 9.30889 16.3227C9.45932 16.3189 9.69281 16.243 9.94575 16.1016C10.4516 15.8188 11.0424 15.2933 11.4273 14.7686C11.4823 14.693 11.5884 14.6703 11.6715 14.7163C13.5583 15.8463 15.6416 16.7724 17.4792 17.9424L18.6351 16.841L16.3855 13.1182C15.9622 13.2211 15.3524 13.2838 14.5503 13.1475C14.1605 13.0813 13.7341 13.0412 13.3044 13.0282ZM7.92007 13.5353L5.3531 17.7806C8.64903 21.0418 11.0067 21.7185 12.0265 21.9533C12.4772 22.0932 12.9861 21.9129 13.2361 21.4915C13.2975 21.3881 13.3336 21.2781 13.3554 21.1658C13.8236 21.3519 14.3777 21.181 14.6416 20.7361C14.7154 20.6117 14.7582 20.4765 14.7749 20.3406C15.1764 20.3918 15.5917 20.2079 15.8093 19.8412C15.8705 19.7381 15.907 19.6281 15.9286 19.5161C16.3963 19.7 16.9487 19.5269 17.2121 19.0829C17.2835 18.9626 17.3268 18.8326 17.3446 18.7014L17.0963 18.5437C15.4245 17.4793 13.4807 16.5849 11.6415 15.5164C11.2312 15.9811 10.7892 16.4479 10.2945 16.7245C9.97297 16.9043 9.69907 17.0256 9.32702 17.0349C9.21487 17.0378 9.02893 17.0543 8.792 16.9191C8.55507 16.7839 8.43573 16.5551 8.38603 16.4239C8.29617 16.1866 8.32078 16.0845 8.33023 15.9468C8.33969 15.809 8.36521 15.6639 8.40975 15.5087C8.49222 15.2213 8.61886 14.9317 8.76829 14.6409C8.94309 14.3009 9.1378 13.9813 9.33818 13.6993L7.92007 13.5353ZM20.5171 15.3294C20.6152 15.3294 20.7092 15.3669 20.7787 15.4338C20.8481 15.5006 20.8872 15.5913 20.8875 15.6859C20.8875 15.7328 20.878 15.7794 20.8594 15.8228C20.8409 15.8662 20.8136 15.9056 20.7792 15.9389C20.7448 15.9721 20.7039 15.9985 20.659 16.0165C20.614 16.0345 20.5658 16.0437 20.5171 16.0437C20.4684 16.0437 20.4202 16.0345 20.3752 16.0165C20.3302 15.9985 20.2893 15.9721 20.2549 15.9389C20.2205 15.9056 20.1933 15.8662 20.1747 15.8228C20.1561 15.7794 20.1466 15.7328 20.1467 15.6859C20.1469 15.5913 20.186 15.5006 20.2554 15.4338C20.3249 15.3669 20.419 15.3294 20.5171 15.3294ZM3.53878 16.1442C3.63699 16.1441 3.73119 16.1818 3.80065 16.2487C3.87011 16.3157 3.90915 16.4066 3.90918 16.5013C3.90915 16.596 3.87011 16.6869 3.80065 16.7539C3.73119 16.8208 3.63699 16.8585 3.53878 16.8584C3.44056 16.8585 3.34637 16.8208 3.2769 16.7539C3.20744 16.6869 3.16841 16.596 3.16838 16.5013C3.16841 16.4066 3.20744 16.3157 3.2769 16.2487C3.34637 16.1818 3.44056 16.1441 3.53878 16.1442Z" fill="#3C50E0"/>
</svg>
