<svg width="24" height="24" viewBox="0 0 24 24" fill="none" xmlns="http://www.w3.org/2000/svg">
<path d="M12 5C15.866 5 19 8.13401 19 12C19 15.866 15.866 19 12 19C8.13401 19 5 15.866 5 12C5 8.13401 8.13401 5 12 5Z" fill="#3C50E0"/>
<path fill-rule="evenodd" clip-rule="evenodd" d="M12 1.34961C17.8818 1.34961 22.6504 6.11817 22.6504 12C22.6504 17.8818 17.8818 22.6504 12 22.6504C6.11817 22.6504 1.34961 17.8818 1.34961 12C1.34961 6.11817 6.11817 1.34961 12 1.34961ZM12 2.65039C6.83614 2.65039 2.65039 6.83614 2.65039 12C2.65039 17.1639 6.83614 21.3496 12 21.3496C17.1639 21.3496 21.3496 17.1639 21.3496 12C21.3496 6.83614 17.1639 2.65039 12 2.65039Z" fill="#3C50E0"/>
</svg>
