<svg width="24" height="24" viewBox="0 0 24 24" fill="none" xmlns="http://www.w3.org/2000/svg">
<path d="M12.002 5C15.8679 5 19.002 8.13401 19.002 12C19.002 15.866 15.8679 19 12.002 19C8.13596 19 5.00195 15.866 5.00195 12C5.00195 8.13401 8.13596 5 12.002 5Z" fill="#8694AA"/>
<path fill-rule="evenodd" clip-rule="evenodd" d="M12.002 1.34961C17.8838 1.34961 22.6523 6.11817 22.6523 12C22.6523 17.8818 17.8838 22.6504 12.002 22.6504C6.12012 22.6504 1.35156 17.8818 1.35156 12C1.35156 6.11817 6.12012 1.34961 12.002 1.34961ZM12.002 2.65039C6.83809 2.65039 2.65234 6.83614 2.65234 12C2.65234 17.1639 6.83809 21.3496 12.002 21.3496C17.1658 21.3496 21.3516 17.1639 21.3516 12C21.3516 6.83614 17.1658 2.65039 12.002 2.65039Z" fill="#8694AA"/>
</svg>
