<svg width="24" height="24" viewBox="0 0 24 24" fill="none" xmlns="http://www.w3.org/2000/svg">
<g clip-path="url(#clip0_2353_9999)">
<path d="M3 7C3 5.89543 3.89543 5 5 5H8C8.55228 5 9 5.44772 9 6C9 6.55228 8.55228 7 8 7H6C5.44772 7 5 7.44772 5 8V10C5 10.5523 4.55228 11 4 11C3.44772 11 3 10.5523 3 10V7Z" fill="#B6CAFF"/>
<path d="M21 7C21 5.89543 20.1046 5 19 5H16C15.4477 5 15 5.44772 15 6C15 6.55228 15.4477 7 16 7H18C18.5523 7 19 7.44772 19 8V10C19 10.5523 19.4477 11 20 11C20.5523 11 21 10.5523 21 10V7Z" fill="#B6CAFF"/>
<path d="M3 17C3 18.1046 3.89543 19 5 19H8C8.55228 19 9 18.5523 9 18C9 17.4477 8.55228 17 8 17H6C5.44772 17 5 16.5523 5 16V14C5 13.4477 4.55228 13 4 13C3.44772 13 3 13.4477 3 14V17Z" fill="#B6CAFF"/>
<path d="M21 17C21 18.1046 20.1046 19 19 19H16C15.4477 19 15 18.5523 15 18C15 17.4477 15.4477 17 16 17H18C18.5523 17 19 16.5523 19 16V14C19 13.4477 19.4477 13 20 13C20.5523 13 21 13.4477 21 14V17Z" fill="#B6CAFF"/>
<path d="M7 12C7 11.4477 7.44772 11 8 11H16C16.5523 11 17 11.4477 17 12C17 12.5523 16.5523 13 16 13H8C7.44772 13 7 12.5523 7 12Z" fill="#B6CAFF"/>
</g>
<defs>
<clipPath id="clip0_2353_9999">
<rect width="24" height="24" fill="white"/>
</clipPath>
</defs>
</svg>
