<svg width="24" height="24" viewBox="0 0 24 24" fill="none" xmlns="http://www.w3.org/2000/svg">
<path d="M13.5381 2C18.1893 2.00004 21.9599 5.77062 21.96 10.4219C21.96 15.0732 18.1894 18.8437 13.5381 18.8438C11.4588 18.8438 9.55701 18.0887 8.08789 16.8398L2.96875 21.96L2 20.9912L7.11914 15.8711C5.87086 14.4021 5.11621 12.5006 5.11621 10.4219C5.11625 5.7706 8.8868 2 13.5381 2ZM13.5381 3.36816C9.64264 3.36816 6.48441 6.52643 6.48438 10.4219C6.48438 14.3173 9.64261 17.4756 13.5381 17.4756C17.4335 17.4755 20.5918 14.3173 20.5918 10.4219C20.5918 6.52646 17.4335 3.3682 13.5381 3.36816Z" fill="#585C71"/>
</svg>
