<svg width="24" height="24" viewBox="0 0 24 24" fill="none" xmlns="http://www.w3.org/2000/svg">
<g clip-path="url(#clip0_549_3894)">
<path d="M18.4749 9.25305C19.0607 9.83883 19.0607 10.7886 18.4749 11.3744L12.1109 17.7383C11.5251 18.3241 10.5754 18.3241 9.98959 17.7383L7.16117 14.9099C6.57538 14.3241 6.57538 13.3744 7.16117 12.7886L13.5251 6.42462C14.1109 5.83883 15.0607 5.83883 15.6464 6.42462L18.4749 9.25305Z" fill="#8694AA"/>
<path fill-rule="evenodd" clip-rule="evenodd" d="M23.7782 6.77817C22.6066 7.94975 22.6066 9.84924 23.7782 11.0208L11.7574 23.0416C10.5858 21.8701 8.68629 21.8701 7.51472 23.0416L1.85786 17.3848C3.02944 16.2132 3.02944 14.3137 1.85786 13.1421L13.8787 1.12132C15.0503 2.29289 16.9497 2.29289 18.1213 1.12132L23.7782 6.77817ZM16.3536 5.71751C15.3772 4.7412 13.7943 4.7412 12.818 5.71751L6.45406 12.0815C5.47775 13.0578 5.47775 14.6407 6.45406 15.617L9.28249 18.4454C10.2588 19.4217 11.8417 19.4217 12.818 18.4454L19.182 12.0815C20.1583 11.1052 20.1583 9.52225 19.182 8.54594L16.3536 5.71751Z" fill="#8694AA"/>
</g>
<defs>
<clipPath id="clip0_549_3894">
<rect width="24" height="24" fill="white"/>
</clipPath>
</defs>
</svg>
