<svg width="24" height="24" viewBox="0 0 24 24" fill="none" xmlns="http://www.w3.org/2000/svg">
<path d="M15.63 3C15.6528 3.57056 15.9162 4.72629 16.6195 5.69833C17.2719 6.59991 18.2906 7.34484 20 7.34484V10.3962C18.1732 10.3962 16.733 9.84572 15.6312 9.03063V15.0705C15.6312 16.0093 15.3964 17.4205 14.5934 18.6495C13.7342 19.9645 12.2569 21 10.0576 21C7.50141 21 5.87387 19.9033 4.96617 18.482C4.12987 17.1724 4 15.7448 4 15.0705C4 13.9508 4.34947 12.5974 5.30889 11.4983C6.30818 10.3536 7.83597 9.63872 9.85962 9.63872C10.1412 9.63872 10.4175 9.65313 10.6841 9.68318V12.7781C10.5261 12.7356 10.2552 12.69 9.85962 12.69C8.62924 12.69 8.00225 13.0951 7.66026 13.4868C7.27842 13.9242 7.10012 14.5238 7.10012 15.0705C7.10012 15.4565 7.19026 16.2309 7.59085 16.8582C7.92003 17.3736 8.54628 17.9487 10.0576 17.9487C11.1124 17.9487 11.6468 17.518 11.9859 16.9991C12.3812 16.394 12.5311 15.6033 12.5311 15.0705V3.06002L15.63 3Z" fill="#8694AA"/>
</svg>
