<svg width="24" height="24" viewBox="0 0 24 24" fill="none" xmlns="http://www.w3.org/2000/svg">
<path fill-rule="evenodd" clip-rule="evenodd" d="M14.6667 2C15.403 2 16 2.5777 16 3.29032V5.87097H20.6667C21.403 5.87097 22 6.44867 22 7.16129L21.9915 18.6841C21.9502 19.2533 21.7546 19.9971 21.2741 20.6429C20.7005 21.4139 19.7506 22 18.3333 22H4.66667C3.24939 22 2.29951 21.4139 1.72591 20.6429C1.1768 19.9048 1 19.0387 1 18.4516V3.29032C1 2.5777 1.59695 2 2.33333 2H14.6667ZM16 18.4516C16 18.8322 16.1237 19.4178 16.4746 19.8894C16.801 20.328 17.3508 20.7097 18.3333 20.7097C19.3159 20.7097 19.8656 20.328 20.1921 19.8894C20.5429 19.4178 20.6667 18.8322 20.6667 18.4516V7.16129H16V18.4516ZM4.33333 14.9032V16.1935H12.6667V14.9032H4.33333ZM4.33333 12.3226H12.6667V11.0323H4.33333V12.3226ZM4.33333 8.45161H12.6667V7.16129H4.33333V8.45161Z" fill="#9EA8F0"/>
</svg>
