<svg width="24" height="24" viewBox="0 0 24 24" fill="none" xmlns="http://www.w3.org/2000/svg">
<path d="M16.8242 20.1906C16.7329 20.6603 16.3213 20.9999 15.8428 21.0001H7.15723C6.6787 20.9999 6.26712 20.6603 6.17578 20.1906L4 9.00012H19L16.8242 20.1906Z" fill="#E7031E"/>
<path fill-rule="evenodd" clip-rule="evenodd" d="M17 5.00012C18.1046 5.00012 19 5.89555 19 7.00012H4C4 5.89555 4.89543 5.00012 6 5.00012H8V4.00012C8 2.89555 8.89543 2.00012 10 2.00012H13C14.1046 2.00012 15 2.89555 15 4.00012V5.00012H17ZM13 5.00012V4.00012H10V5.00012H13Z" fill="#E7031E"/>
</svg>
