<svg width="24" height="24" viewBox="0 0 24 24" fill="none" xmlns="http://www.w3.org/2000/svg">
<g clip-path="url(#clip0_2353_2001)">
<path fill-rule="evenodd" clip-rule="evenodd" d="M6 6C4.89543 6 4 6.89543 4 8V9.5C5.10457 9.5 6 10.3954 6 11.5C6 12.6046 5.10457 13.5 4 13.5V15C4 16.1046 4.89543 17 6 17H18C19.1046 17 20 16.1046 20 15V13.5C18.8954 13.5 18 12.6046 18 11.5C18 10.3954 18.8954 9.5 20 9.5V8C20 6.89543 19.1046 6 18 6H6Z" fill="#B6CAFF"/>
<path d="M10.5858 10.5858C10.9763 10.1953 11.6095 10.1953 12 10.5858L13.4142 12L12 13.4142C11.6095 13.8047 10.9763 13.8047 10.5858 13.4142C10.1953 13.0237 10.1953 12.3905 10.5858 12L9.17157 10.5858C8.78105 10.1953 8.78105 9.56214 9.17157 9.17157C9.5621 8.78105 10.1953 8.78105 10.5858 9.17157L12 10.5858L13.4142 9.17157C13.8047 8.78105 14.4379 8.78105 14.8284 9.17157C15.219 9.56214 15.219 10.1953 14.8284 10.5858L13.4142 12L14.8284 13.4142C15.219 13.8047 15.219 14.4379 14.8284 14.8284C14.4379 15.219 13.8047 15.219 13.4142 14.8284L12 13.4142L10.5858 14.8284C10.1953 15.219 9.5621 15.219 9.17157 14.8284C8.78105 14.4379 8.78105 13.8047 9.17157 13.4142L10.5858 12L9.17157 10.5858Z" fill="white"/>
</g>
<defs>
<clipPath id="clip0_2353_2001">
<rect width="24" height="24" fill="white"/>
</clipPath>
</defs>
</svg>
