<svg width="24" height="24" viewBox="0 0 24 24" fill="none" xmlns="http://www.w3.org/2000/svg">
<path d="M11.9998 13C13.1817 13 14.3522 13.2333 15.4441 13.6855C16.5359 14.1378 17.5283 14.8001 18.364 15.6357C19.1997 16.4715 19.8629 17.4637 20.3152 18.5557C20.5115 19.0296 20.6665 19.5186 20.7791 20.0166C21.0223 21.0939 20.1042 22 18.9998 22H4.99976C3.89531 21.9999 2.97811 21.0939 3.22144 20.0166C3.33396 19.5186 3.489 19.0296 3.6853 18.5557C4.13758 17.4639 4.79988 16.4714 5.6355 15.6357C6.47111 14.8001 7.46367 14.1378 8.55542 13.6855C9.6473 13.2333 10.8179 13 11.9998 13ZM11.9998 3C14.2089 3 15.9998 4.79086 15.9998 7C15.9998 9.20914 14.2089 11 11.9998 11C9.79069 10.9999 7.99976 9.20908 7.99976 7C7.99976 4.79092 9.79069 3.00009 11.9998 3Z" fill="#9EA8F0"/>
</svg>
