<svg width="24" height="24" viewBox="0 0 24 24" fill="none" xmlns="http://www.w3.org/2000/svg">
<g clip-path="url(#clip0_1572_11454)">
<path d="M18.4749 9.25329C19.0607 9.83908 19.0607 10.7888 18.4749 11.3746L12.1109 17.7386C11.5251 18.3244 10.5754 18.3244 9.98959 17.7386L7.16117 14.9101C6.57538 14.3244 6.57538 13.3746 7.16117 12.7888L13.5251 6.42487C14.1109 5.83908 15.0607 5.83908 15.6464 6.42487L18.4749 9.25329Z" fill="#3C50E0"/>
<path fill-rule="evenodd" clip-rule="evenodd" d="M23.7782 6.77842C22.6066 7.94999 22.6066 9.84949 23.7782 11.0211L11.7574 23.0419C10.5858 21.8703 8.68629 21.8703 7.51472 23.0419L1.85786 17.385C3.02944 16.2134 3.02944 14.314 1.85786 13.1424L13.8787 1.12156C15.0503 2.29314 16.9497 2.29314 18.1213 1.12156L23.7782 6.77842ZM16.3536 5.71776C15.3772 4.74145 13.7943 4.74145 12.818 5.71776L6.45406 12.0817C5.47775 13.058 5.47775 14.6409 6.45406 15.6173L9.28249 18.4457C10.2588 19.422 11.8417 19.422 12.818 18.4457L19.182 12.0817C20.1583 11.1054 20.1583 9.5225 19.182 8.54619L16.3536 5.71776Z" fill="#3C50E0"/>
</g>
<defs>
<clipPath id="clip0_1572_11454">
<rect width="24" height="24" fill="white" transform="translate(0 0.000244141)"/>
</clipPath>
</defs>
</svg>
